<svg width="153" height="153" viewBox="0 0 153 153" fill="none" xmlns="http://www.w3.org/2000/svg">
<path d="M0 76.4999C0 55.3828 7.4707 37.3535 22.4122 22.4121C37.3535 7.4707 55.3828 0 76.5001 0C97.6171 0 115.646 7.4707 130.588 22.4121C145.529 37.3535 153 55.3828 153 76.4999C153 97.6171 145.529 115.646 130.588 130.588C115.647 145.529 97.6172 153 76.5001 153C55.3828 153 37.3535 145.529 22.4122 130.588C7.4707 115.647 0 97.6169 0 76.4999ZM8.36718 76.4999C8.36718 95.2266 15.041 111.264 28.3886 124.611C41.7363 137.959 57.7734 144.633 76.5001 144.633C95.2266 144.633 111.264 137.959 124.611 124.611C137.959 111.264 144.633 95.2266 144.633 76.4999C144.633 57.7734 137.959 41.7363 124.611 28.3886C111.264 15.041 95.2265 8.36718 76.5001 8.36718C57.7734 8.36718 41.7364 15.041 28.3886 28.3886C15.041 41.7363 8.36718 57.7734 8.36718 76.4999ZM29.8829 92.9355C29.4845 92.537 29.4845 92.1386 29.8829 91.7401C30.6797 90.9433 31.6759 90.6444 32.8711 90.8437C34.0664 91.0429 34.7636 91.2421 34.9629 91.4413C36.3574 92.039 37.9014 93.3836 39.5946 95.4756C41.2878 97.5674 42.6326 99.0116 43.6289 99.8085C48.4101 103.793 53.2908 104.092 58.2713 100.705C58.6697 99.3104 59.3172 98.1151 60.2136 97.1189C61.1099 96.1228 61.9568 95.4257 62.7537 95.0271C63.5507 94.6287 64.9452 94.031 66.9374 93.2341C60.3631 92.6365 55.034 91.4909 50.9501 89.7975C46.8661 88.1042 43.6287 85.9626 41.2381 83.3728C38.0506 79.7869 36.1081 75.1052 35.4109 69.3279C34.7135 63.5506 35.1618 58.2713 36.7557 53.49C37.951 50.5017 39.6443 47.8125 41.8356 45.4217C40.2418 40.4412 40.5407 34.7635 42.7321 28.3885C49.1071 28.7869 54.8844 30.9783 60.0641 34.9627C70.025 32.3729 80.3844 32.2733 91.142 34.6639C92.5366 33.6678 94.6782 32.4227 97.5667 30.9285C100.455 29.4343 104.091 28.5876 108.474 28.3883C109.271 30.5797 109.819 33.1696 110.118 36.1579C110.416 39.1461 110.267 41.9352 109.67 44.525C114.251 49.3063 116.642 55.6813 116.841 63.65C116.841 70.025 115.746 75.3043 113.554 79.4879C111.363 83.6715 107.478 87.1578 101.9 89.9467C98.1148 91.7398 93.1344 92.8354 86.9586 93.2338C89.7478 94.6283 91.7897 96.0728 93.0846 97.5669C94.3797 99.061 95.2263 101.402 95.6249 104.589V114.003L95.9236 123.117C96.5212 124.113 97.2187 124.96 98.0155 125.657C98.8124 126.354 99.5097 126.852 100.107 127.151C100.705 127.45 100.904 127.898 100.705 128.496C100.506 129.094 99.7087 129.392 98.3144 129.392C94.9275 129.392 92.2382 128.197 90.246 125.806C89.6484 124.81 89.3495 123.615 89.3495 122.22V107.877C89.3495 106.283 88.9511 105.137 88.1542 104.44C87.3573 103.743 86.5605 103.295 85.7636 103.095V121.921C85.7636 125.308 86.162 127.5 86.9589 128.496C87.7558 129.492 88.2538 130.488 88.4532 131.484C88.6524 131.683 88.5029 131.832 88.0049 131.932C87.507 132.032 86.6602 131.882 85.4648 131.484C82.8749 130.886 81.0819 129.541 80.0859 127.45C79.0898 125.358 78.5917 123.117 78.5917 120.726V102.199H74.707V120.726C74.707 123.117 74.2088 125.408 73.2127 127.599C71.8183 130.389 69.2283 131.883 65.4433 132.082C64.8456 131.883 64.5468 131.683 64.5468 131.484C64.746 131.285 65.3437 130.289 66.3398 128.496C66.539 128.098 66.7881 127.301 67.0869 126.105C67.3859 124.91 67.5352 123.516 67.5352 121.922V103.096C66.7384 103.295 65.9912 103.743 65.294 104.44C64.5967 105.138 64.248 106.283 64.248 107.877V122.221C64.248 123.615 63.9492 124.811 63.3515 125.807C61.5585 128.197 58.8691 129.393 55.2833 129.393C53.8888 129.393 53.0919 129.094 52.8927 128.496C52.6933 128.098 52.7432 127.749 53.0422 127.45C53.3411 127.151 53.7893 126.803 54.387 126.404C54.9846 126.006 55.3831 125.707 55.5823 125.508C56.3792 124.91 56.9767 124.113 57.3752 123.117C57.9729 122.32 58.1222 120.229 57.8234 116.842C57.5246 113.455 57.4747 111.264 57.6739 110.268C52.4941 112.061 47.215 111.164 41.8359 107.578C40.2421 105.984 38.6484 103.693 37.0546 100.705C35.8593 98.5136 33.4687 95.9237 29.8829 92.9355Z" fill="black"/>
</svg>
