<?xml version="1.0" encoding="UTF-8"?><svg id="Calque_2" xmlns="http://www.w3.org/2000/svg" viewBox="0 0 764.11 190.52"><defs><style>.cls-1{fill:#f1f3f3;}</style></defs><g id="Calque_1-2"><g><g><path class="cls-1" d="M287.15,127.9l-4.27-11.03h-26.94l-4.36,11.03h-16.72l26.77-62.33h16.72l26.14,62.33h-17.34Zm-26.32-23.47h17.25l-8.54-22.23-8.71,22.23Z"/><path class="cls-1" d="M310.53,61.92h15.83V127.9h-15.83V61.92Z"/><path class="cls-1" d="M339.34,61.92h15.83V127.9h-15.83V61.92Z"/><path class="cls-1" d="M404.88,83.75c3.67,3.05,5.54,7.34,5.6,12.85v31.3h-15.56v-5.42c-3.2,4.09-8.03,6.13-14.49,6.13-5.1,0-9.11-1.38-12.05-4.13-2.93-2.76-4.4-6.39-4.4-10.89s1.59-8.12,4.76-10.67c3.17-2.55,7.72-3.85,13.65-3.91h12.54v-.53c0-2.31-.79-4.09-2.36-5.33-1.57-1.25-3.84-1.87-6.8-1.87-2.02,0-4.28,.33-6.8,.98-2.52,.65-5.05,1.6-7.6,2.84l-4.36-10.67c3.91-1.78,7.66-3.1,11.25-3.96,3.59-.86,7.31-1.29,11.16-1.29,6.64,0,11.8,1.53,15.47,4.58Zm-13.34,32.37c1.78-1.16,2.9-2.65,3.38-4.49v-4.18h-9.43c-4.45,0-6.67,1.66-6.67,4.98,0,1.66,.58,2.98,1.73,3.96,1.16,.98,2.74,1.47,4.76,1.47,2.37,0,4.45-.58,6.22-1.73Z"/><path class="cls-1" d="M465.56,84.15c3.17,3.32,4.76,7.8,4.76,13.43v30.32h-15.74v-25.79c0-2.73-.74-4.88-2.22-6.45-1.48-1.57-3.47-2.36-5.96-2.36-2.61,.06-4.76,.92-6.45,2.58-1.69,1.66-2.68,3.85-2.98,6.58v25.43h-15.83v-48.11h15.83v7.83c1.72-2.79,3.93-4.89,6.62-6.31,2.7-1.42,5.79-2.13,9.29-2.13,5.28,0,9.5,1.66,12.67,4.98Z"/><path class="cls-1" d="M525.23,69.47c5.01,2.61,8.91,6.27,11.69,10.98,2.79,4.71,4.18,10.12,4.18,16.23s-1.41,11.53-4.22,16.27c-2.82,4.74-6.79,8.42-11.92,11.03-5.13,2.61-11.01,3.91-17.65,3.91h-26.23v-62.33h26.85c6.52,0,12.28,1.3,17.29,3.91Zm-8.49,43.04c2.43-1.48,4.33-3.59,5.69-6.31s2.04-5.84,2.04-9.34-.73-6.7-2.18-9.43c-1.45-2.73-3.45-4.85-6-6.36-2.55-1.51-5.45-2.27-8.71-2.27h-10.23v35.92h11.03c3.14,0,5.93-.74,8.36-2.22Z"/><path class="cls-1" d="M596.14,79.79v48.11h-15.83v-7.83c-3.26,5.57-8.39,8.42-15.38,8.54-5.22,0-9.38-1.67-12.49-5.02-3.11-3.35-4.67-7.81-4.67-13.38v-30.41h15.83v25.88c0,2.73,.7,4.86,2.09,6.4,1.39,1.54,3.27,2.31,5.65,2.31,2.79-.06,4.98-1.08,6.58-3.07,1.6-1.99,2.4-4.58,2.4-7.78v-23.74h15.83Z"/><path class="cls-1" d="M629.84,92.33c-2.85,0-5.16,1.08-6.94,3.25-1.78,2.16-2.67,4.96-2.67,8.4s.89,6.31,2.67,8.45c1.78,2.13,4.09,3.2,6.94,3.2,4.39,0,7.53-1.81,9.43-5.42l11.65,6.67c-1.9,3.68-4.74,6.52-8.54,8.54-3.79,2.02-8.24,3.02-13.34,3.02s-9.25-1.01-12.98-3.02c-3.73-2.01-6.62-4.86-8.67-8.54-2.04-3.67-3.07-7.94-3.07-12.8s1.04-9.26,3.11-13.03c2.07-3.76,4.99-6.67,8.76-8.71,3.76-2.04,8.11-3.07,13.03-3.07s9.07,.99,12.8,2.98c3.73,1.99,6.64,4.79,8.71,8.4l-11.47,6.67c-2.25-3.32-5.4-4.98-9.43-4.98Z"/><path class="cls-1" d="M703.16,84.15c3.17,3.32,4.76,7.8,4.76,13.43v30.32h-15.83v-25.79c0-2.73-.73-4.88-2.18-6.45-1.45-1.57-3.45-2.36-6-2.36-2.91,.06-5.2,1.08-6.89,3.07-1.69,1.99-2.53,4.58-2.53,7.78v23.74h-15.83V61.92h15.83v25.7c1.72-2.79,3.93-4.89,6.62-6.31,2.7-1.42,5.79-2.13,9.29-2.13,5.34,0,9.59,1.66,12.76,4.98Z"/><path class="cls-1" d="M757.8,86.19c4.21,4.62,6.31,10.97,6.31,19.03,0,1.25-.03,2.19-.09,2.84h-33.43c.77,2.73,2.1,4.82,4,6.27,1.9,1.45,4.21,2.18,6.94,2.18,2.07,0,4.08-.41,6-1.25,1.93-.83,3.69-2.04,5.29-3.65l8.27,8.27c-2.49,2.79-5.5,4.91-9.03,6.36-3.53,1.45-7.51,2.18-11.96,2.18-5.16,0-9.66-1.01-13.52-3.02-3.85-2.01-6.8-4.86-8.85-8.54-2.04-3.67-3.07-7.94-3.07-12.8s1.04-9.26,3.11-13.03c2.07-3.76,5.01-6.67,8.8-8.71,3.79-2.04,8.18-3.07,13.16-3.07,7.82,0,13.84,2.31,18.05,6.94Zm-9.07,13.43c0-2.79-.82-5.02-2.45-6.71-1.63-1.69-3.78-2.54-6.45-2.54-2.49,0-4.58,.83-6.27,2.49-1.69,1.66-2.8,3.91-3.33,6.76h18.5Z"/></g><g><g><polygon class="cls-1" points="25.91 91.92 91.92 25.91 91.92 0 0 91.92 25.91 91.92"/><polygon class="cls-1" points="91.92 164.62 25.91 98.6 0 98.6 91.92 190.52 91.92 164.62"/><polygon class="cls-1" points="164.62 98.6 98.6 164.62 98.6 190.52 190.52 98.6 164.62 98.6"/><polygon class="cls-1" points="98.6 25.91 164.62 91.92 190.52 91.92 98.6 0 98.6 25.91"/></g><path class="cls-1" d="M108.73,119.28l-3.29-8.5h-20.76l-3.36,8.5h-12.88l20.63-48.04h12.88l20.15,48.04h-13.36Zm-20.28-18.09h13.29l-6.58-17.13-6.72,17.13Z"/></g></g></g></svg>