<svg width="208" height="229" viewBox="0 0 208 229" fill="none" xmlns="http://www.w3.org/2000/svg">
<path d="M94.6388 2.90719C100.294 -0.328857 107.66 -0.343474 113.311 2.90719C141.738 18.9648 170.174 34.9972 198.597 51.0646C203.943 54.0749 207.518 60.0224 207.464 66.1802V162.789C207.504 169.202 203.575 175.291 197.935 178.233C169.601 194.203 141.282 210.191 112.953 226.16C107.18 229.46 99.6663 229.205 94.0743 225.636C85.5798 220.713 77.0707 215.815 68.5755 210.897C66.8395 209.862 64.8827 209.039 63.6569 207.356C64.7405 205.896 66.6779 205.714 68.2522 205.077C71.798 203.95 75.0546 202.14 78.312 200.385C79.1357 199.821 80.1413 200.037 80.9309 200.542C88.1947 204.705 95.3943 208.989 102.682 213.113C104.237 214.01 105.812 212.819 107.14 212.078C134.945 196.369 162.783 180.719 190.582 165.005C191.612 164.51 192.182 163.417 192.098 162.289C192.118 130.42 192.103 98.5447 192.108 66.6756C192.226 65.3958 191.485 64.2191 190.327 63.6953C162.092 47.7993 133.871 31.8789 105.64 15.9789C105.151 15.6427 104.572 15.4624 103.978 15.4615C103.385 15.4606 102.805 15.6393 102.314 15.974C74.0838 31.8789 45.8678 47.8139 17.6372 63.7091C16.4837 64.2337 15.7095 65.3909 15.8468 66.6756C15.8517 98.5447 15.8468 130.42 15.8468 162.294C15.7979 162.844 15.9188 163.396 16.1933 163.876C16.4678 164.355 16.8827 164.739 17.3821 164.976C24.9156 169.246 32.4588 173.487 39.9972 177.743C44.244 180.028 49.4583 181.386 54.1373 179.635C58.2663 178.155 61.1606 173.943 61.0818 169.56C61.1208 137.877 61.0623 106.189 61.1111 74.5103C61.0079 73.1038 62.3425 71.9418 63.7105 72.0741C67.3302 72.0498 70.9548 72.0254 74.5745 72.0839C76.0854 72.0498 77.1252 73.5642 76.9383 74.9813C76.9237 106.865 76.9773 138.75 76.914 170.633C76.9237 179.131 73.4315 188.377 65.5691 192.535C55.8829 197.551 43.9109 196.487 34.3418 191.677C26.0577 187.544 18.1522 182.666 10.0152 178.238C4.36059 175.312 0.450886 169.198 0.490689 162.79V66.1802C0.43139 59.8949 4.14939 53.8394 9.66181 50.8729C37.9907 34.8909 66.3148 18.8966 94.6388 2.90719Z" fill="#8CC84B"/>
<path d="M119.353 69.8288C131.708 69.0338 144.935 69.3578 156.054 75.4426C164.662 80.1054 169.434 89.8915 169.586 99.4518C169.346 100.741 167.997 101.453 166.766 101.364C163.181 101.359 159.595 101.413 156.011 101.34C154.49 101.398 153.606 99.9967 153.415 98.6528C152.385 94.0785 149.89 89.548 145.583 87.3416C138.971 84.0325 131.305 84.199 124.096 84.268C118.833 84.5473 113.174 85.0029 108.715 88.0968C105.292 90.4404 104.252 95.1715 105.474 98.9817C106.625 101.717 109.785 102.6 112.369 103.414C127.259 107.307 143.038 106.92 157.643 112.043C163.69 114.131 169.606 118.192 171.675 124.521C174.383 133.004 173.196 143.143 167.159 149.953C162.263 155.557 155.132 158.607 148.021 160.264C138.559 162.372 128.741 162.426 119.133 161.49C110.098 160.46 100.696 158.087 93.7217 151.933C87.7577 146.757 84.8447 138.69 85.1339 130.905C85.2029 129.591 86.5124 128.674 87.7723 128.782C91.3822 128.752 94.9922 128.743 98.6022 128.787C100.044 128.683 101.113 129.929 101.187 131.288C101.853 135.646 103.492 140.22 107.293 142.804C114.63 147.536 123.836 147.212 132.237 147.345C139.197 147.036 147.01 146.943 152.69 142.344C155.686 139.721 156.574 135.333 155.764 131.557C154.887 128.37 151.552 126.885 148.688 125.914C133.989 121.265 118.034 122.952 103.477 117.695C97.5673 115.608 91.8526 111.66 89.5821 105.591C86.4141 97.0011 87.8657 86.3761 94.5357 79.796C101.039 73.2508 110.427 70.7302 119.353 69.828V69.8288Z" fill="#8CC84B"/>
</svg>
