<svg width="192" height="101" viewBox="0 0 192 101" fill="none" xmlns="http://www.w3.org/2000/svg">
<g clip-path="url(#clip0_80_859)">
<path d="M96.3516 99.4215C148.817 99.0445 191.191 76.7069 190.996 49.5289C190.8 22.3509 148.11 0.624358 95.6445 1.00127C43.1788 1.37817 0.805249 23.7158 1.00049 50.8938C1.19574 78.0718 43.8859 99.7984 96.3516 99.4215Z" fill="#8993BE"/>
<path fill-rule="evenodd" clip-rule="evenodd" d="M27.8871 79.8398L37.9214 27.317L61.9951 27.1441C72.4102 27.717 77.653 32.8591 77.7181 41.9249C77.8297 57.4649 65.5325 66.6188 54.4659 66.0505L42.7552 66.1347L40.2501 79.7509L27.8871 79.8398ZM45.2875 56.4039L48.4016 36.955L56.8601 36.8943C61.4148 36.8615 64.6816 38.7806 64.7095 42.6654C64.1385 53.6783 58.9469 55.6581 53.0958 56.3478L45.2882 56.4039L45.2875 56.4039ZM75.4715 65.8996L85.5051 13.3777L97.8681 13.2888L95.363 26.9044L107.074 26.8203C117.49 27.3932 121.431 32.5446 120.177 39.0297L115.813 65.6098L102.8 65.7033L107.182 41.7133C107.809 38.4708 107.795 36.5283 103.241 36.5611L93.4809 36.6312L87.8345 65.8108L75.4715 65.8996ZM115.077 79.2134L125.111 26.6907L149.185 26.5177C159.601 27.0907 164.844 32.2328 164.909 41.2986C165.02 56.8386 152.722 65.9924 141.657 65.4242L129.944 65.5083L127.439 79.1246L115.077 79.2134ZM132.477 55.7776L135.591 36.3287L144.05 36.2679C148.605 36.2352 151.872 38.1542 151.899 42.039C151.328 53.0519 146.137 55.0317 140.286 55.7215L132.477 55.7776L132.477 55.7776Z" fill="#232531"/>
</g>
<defs>
<clipPath id="clip0_80_859">
<rect width="190" height="99" fill="white" transform="translate(0.646973 1.68372) rotate(-0.411599)"/>
</clipPath>
</defs>
</svg>
