<svg width="165" height="165" viewBox="0 0 165 165" fill="none" xmlns="http://www.w3.org/2000/svg">
<g clip-path="url(#clip0_80_860)">
<path d="M93.3428 35.8286L85.5643 12.2571L28.05 0L0 31.8214L87.6857 76.6071L93.3428 35.8286Z" fill="url(#paint0_linear_80_860)"/>
<path d="M66 97.5857L64.35 48.5571L0 31.8214L15.7929 126.343L66 125.871V97.5857Z" fill="url(#paint1_linear_80_860)"/>
<path d="M52.0928 96.6429L55.1571 57.75L101.828 9.90002L143.55 17.4429L165 70.95L142.607 93.1072L106.071 87.2143L83.4428 111.021L52.0928 96.6429Z" fill="url(#paint2_linear_80_860)"/>
<path d="M101.829 9.90002L34.8857 69.3L47.85 145.671L103.479 165L165 128.229L101.829 9.90002Z" fill="url(#paint3_linear_80_860)"/>
<path d="M31.5857 31.5857H133.414V133.414H31.5857V31.5857Z" fill="black"/>
<path d="M41.25 114.321H79.4357V120.686H41.25V114.321ZM40.7786 44.7857H57.9857C68.1214 44.7857 74.25 50.6786 74.25 59.4V59.6357C74.25 69.5357 66.7071 74.4857 57.0429 74.4857H49.9714V87.2143H40.7786V44.7857ZM57.5143 66C62.2286 66 64.8214 63.1714 64.8214 59.6357V59.4C64.8214 55.1571 61.9929 53.0357 57.2786 53.0357H50.2071V66H57.5143ZM76.6071 81.0857L82.0286 74.4857C85.8 77.55 89.8071 79.6714 94.7571 79.6714C98.5286 79.6714 100.886 78.2571 100.886 75.6643V75.4286C100.886 73.0714 99.4714 71.8928 92.4 70.0071C83.9143 67.8857 78.2571 65.5286 78.2571 57.0428V56.8071C78.2571 49.0286 84.3857 44.0786 93.1071 44.0786C99.2357 44.0786 104.657 45.9643 108.9 49.5L103.95 56.5714C100.179 53.9786 96.4072 52.3286 92.8714 52.3286C89.3357 52.3286 87.45 53.9785 87.45 56.1V56.3357C87.45 59.1643 89.3357 60.1071 96.6429 61.9928C105.129 64.35 110.079 67.4143 110.079 74.7214V74.9571C110.079 83.4428 103.714 88.1571 94.5214 88.1571C88.1571 87.9214 81.7929 85.5643 76.6071 81.0857Z" fill="white"/>
</g>
<defs>
<linearGradient id="paint0_linear_80_860" x1="1.29879" y1="110.409" x2="70.5752" y2="18.9043" gradientUnits="userSpaceOnUse">
<stop offset="0.016" stop-color="#765AF8"/>
<stop offset="0.382" stop-color="#B345F1"/>
<stop offset="0.758" stop-color="#FA3293"/>
<stop offset="0.941" stop-color="#FF318C"/>
</linearGradient>
<linearGradient id="paint1_linear_80_860" x1="6.3855" y1="113.998" x2="75.5511" y2="22.6427" gradientUnits="userSpaceOnUse">
<stop offset="0.016" stop-color="#765AF8"/>
<stop offset="0.382" stop-color="#B345F1"/>
<stop offset="0.758" stop-color="#FA3293"/>
<stop offset="0.941" stop-color="#FF318C"/>
</linearGradient>
<linearGradient id="paint2_linear_80_860" x1="119.875" y1="109.383" x2="80.7863" y2="16.6132" gradientUnits="userSpaceOnUse">
<stop offset="0.183" stop-color="#765AF8"/>
<stop offset="0.238" stop-color="#8655F6"/>
<stop offset="0.345" stop-color="#9F4CF3"/>
<stop offset="0.443" stop-color="#AE47F2"/>
<stop offset="0.522" stop-color="#B345F1"/>
</linearGradient>
<linearGradient id="paint3_linear_80_860" x1="149.092" y1="135.201" x2="58.1814" y2="64.904" gradientUnits="userSpaceOnUse">
<stop offset="0.016" stop-color="#765AF8"/>
<stop offset="0.382" stop-color="#B345F1"/>
</linearGradient>
<clipPath id="clip0_80_860">
<rect width="165" height="165" fill="white"/>
</clipPath>
</defs>
</svg>
