<svg width="181" height="142" viewBox="0 0 181 142" fill="none" xmlns="http://www.w3.org/2000/svg">
<path d="M181 71.0161C181 60.5515 165.984 50.6342 142.963 44.4842C148.275 24.0057 145.914 7.71301 135.51 2.49678C133.112 1.27322 130.308 0.693636 127.246 0.693636V7.874C128.943 7.874 130.308 8.16379 131.452 8.71117C136.469 11.2227 138.646 20.7858 136.949 33.0858C136.543 36.1125 135.879 39.3002 135.067 42.5523C127.836 41.0067 119.941 39.8153 111.64 39.0426C106.659 33.0858 101.494 27.6763 96.2923 22.9431C108.32 13.1868 119.609 7.8418 127.283 7.8418V0.661438C117.137 0.661438 103.855 6.97243 90.4262 17.9201C76.9969 7.03683 63.7152 0.790234 53.5695 0.790234V7.9706C61.2065 7.9706 72.5328 13.2834 84.5601 22.9753C79.395 27.7085 74.2299 33.0858 69.3231 39.0426C60.9851 39.8153 53.0899 41.0067 45.8587 42.5845C45.0102 39.3646 44.383 36.2413 43.9403 33.2468C42.2063 20.9468 44.3461 11.3837 49.3267 8.83997C50.4336 8.26039 51.8724 8.0028 53.5695 8.0028V0.822433C50.4704 0.822433 47.6665 1.40201 45.2316 2.62557C34.8644 7.8418 32.5402 24.1023 37.8897 44.5164C14.9419 50.6986 0 60.5837 0 71.0161C0 81.4808 15.0157 91.398 38.0373 97.548C32.7246 118.027 35.0858 134.319 45.4898 139.535C47.8879 140.759 50.6918 141.339 53.7909 141.339C63.9366 141.339 77.2183 135.028 90.6476 124.08C104.077 134.963 117.359 141.21 127.504 141.21C130.603 141.21 133.407 140.63 135.842 139.407C146.209 134.19 148.534 117.93 143.184 97.5158C166.058 91.3658 181 81.4486 181 71.0161ZM132.965 49.5394C131.599 53.6931 129.902 57.9755 127.984 62.258C126.471 59.6821 124.885 57.1062 123.151 54.5303C121.454 51.9543 119.646 49.4428 117.838 46.9957C123.077 47.6719 128.131 48.5091 132.965 49.5394ZM116.067 83.8313C113.19 88.1781 110.238 92.2996 107.176 96.1313C101.679 96.5499 96.1078 96.7753 90.5 96.7753C84.9291 96.7753 79.3581 96.5499 73.8979 96.1635C70.8357 92.3318 67.8473 88.2426 64.9696 83.9279C62.1657 79.7098 59.6201 75.4274 57.2958 71.1127C59.5832 66.7981 62.1657 62.4834 64.9327 58.2653C67.8104 53.9185 70.7619 49.797 73.8241 45.9653C79.3212 45.5468 84.8922 45.3214 90.5 45.3214C96.0709 45.3214 101.642 45.5468 107.102 45.9331C110.164 49.7648 113.153 53.8541 116.03 58.1687C118.834 62.3868 121.38 66.6693 123.704 70.9839C121.38 75.2986 118.834 79.6132 116.067 83.8313ZM127.984 79.6454C129.976 83.9601 131.673 88.2747 133.075 92.4606C128.242 93.491 123.151 94.3604 117.875 95.0365C119.683 92.5572 121.491 90.0135 123.188 87.4054C124.885 84.8295 126.471 82.2213 127.984 79.6454ZM90.5738 114.002C87.1427 110.911 83.7116 107.465 80.3174 103.698C83.6378 103.827 87.032 103.923 90.4631 103.923C93.9311 103.923 97.3622 103.859 100.72 103.698C97.3991 107.465 93.968 110.911 90.5738 114.002ZM63.1249 95.0365C57.8861 94.3604 52.8316 93.5232 47.9986 92.4928C49.3636 88.3391 51.0607 84.0567 52.9792 79.7742C54.4918 82.3502 56.0783 84.9261 57.8123 87.502C59.5463 90.0779 61.3172 92.5894 63.1249 95.0365ZM90.3893 28.0305C93.8204 31.1216 97.2515 34.5669 100.646 38.3342C97.3253 38.2054 93.9311 38.1088 90.5 38.1088C87.032 38.1088 83.6009 38.1732 80.2436 38.3342C83.564 34.5669 86.9951 31.1216 90.3893 28.0305ZM63.0881 46.9957C61.2803 49.475 59.4725 52.0187 57.7754 54.6269C56.0783 57.2028 54.4918 59.7787 52.9792 62.3546C50.987 58.0399 49.2899 53.7253 47.8879 49.5394C52.721 48.5413 57.8123 47.6719 63.0881 46.9957ZM29.6994 87.3088C16.639 82.4467 8.19038 76.0714 8.19038 71.0161C8.19038 65.9609 16.639 59.5533 29.6994 54.7235C32.8722 53.5321 36.3402 52.4695 39.9189 51.4714C42.0218 57.7824 44.7888 64.3509 48.2199 71.0805C44.8257 77.7779 42.0956 84.3143 40.0296 90.5931C36.3771 89.5949 32.9091 88.5001 29.6994 87.3088ZM49.5481 133.321C44.5306 130.81 42.3539 121.246 44.051 108.946C44.4568 105.92 45.1209 102.732 45.9325 99.48C53.1637 101.026 61.0589 102.217 69.36 102.99C74.3406 108.946 79.5057 114.356 84.7077 119.089C72.6804 128.845 61.3909 134.19 53.7171 134.19C52.0569 134.158 50.6549 133.868 49.5481 133.321ZM137.06 108.785C138.794 121.085 136.654 130.649 131.673 133.192C130.566 133.772 129.128 134.029 127.43 134.029C119.794 134.029 108.467 128.717 96.4399 119.025C101.605 114.291 106.77 108.914 111.677 102.957C120.015 102.185 127.91 100.993 135.141 99.4156C135.99 102.668 136.654 105.791 137.06 108.785ZM151.264 87.3088C148.091 88.5001 144.623 89.5627 141.044 90.5609C138.941 84.2499 136.174 77.6813 132.743 70.9517C136.137 64.2543 138.868 57.718 140.934 51.4392C144.586 52.4373 148.054 53.5321 151.301 54.7235C164.361 59.5855 172.81 65.9609 172.81 71.0161C172.773 76.0714 164.324 82.4789 151.264 87.3088Z" fill="#61DAFB"/>
<path d="M90.4632 85.731C99.7749 85.731 107.324 79.1429 107.324 71.0161C107.324 62.8893 99.7749 56.3012 90.4632 56.3012C81.1514 56.3012 73.6028 62.8893 73.6028 71.0161C73.6028 79.1429 81.1514 85.731 90.4632 85.731Z" fill="#61DAFB"/>
</svg>
