<svg width="220" height="220" viewBox="0 0 220 220" fill="none" xmlns="http://www.w3.org/2000/svg">
<path d="M29.7 110V190.3H110H190.3V110V29.7H110H29.7V110Z" fill="#007ACC"/>
<path d="M65.2081 110.528L65.1641 117.084H75.6361H86.1081V146.784V176.484H93.5001H100.892V146.784V117.084H111.32H121.792V110.616C121.792 107.052 121.704 104.06 121.616 103.972C121.528 103.884 108.812 103.84 93.4121 103.84L65.3401 103.928L65.2081 110.528Z" fill="white"/>
<path d="M159.28 103.796C163.372 104.808 166.452 106.612 169.312 109.604C170.808 111.188 172.964 114.048 173.14 114.752C173.184 114.972 166.188 119.636 161.964 122.276C161.832 122.364 161.216 121.704 160.512 120.692C158.444 117.7 156.288 116.38 152.988 116.16C148.104 115.808 144.98 118.36 145.024 122.628C145.024 123.86 145.2 124.608 145.728 125.62C146.784 127.82 148.808 129.184 155.012 131.868C166.496 136.796 171.424 140.096 174.504 144.716C177.936 149.908 178.684 158.136 176.352 164.296C173.8 170.984 167.464 175.516 158.576 177.012C155.804 177.496 149.292 177.408 146.344 176.88C139.876 175.736 133.76 172.568 130.02 168.344C128.524 166.716 125.664 162.448 125.84 162.14C125.928 162.052 126.588 161.612 127.336 161.216C128.04 160.82 130.768 159.236 133.32 157.784L137.94 155.1L138.908 156.508C140.272 158.576 143.22 161.392 144.98 162.36C150.084 165.044 157.124 164.692 160.6 161.568C162.096 160.204 162.712 158.796 162.712 156.772C162.712 154.924 162.492 154.088 161.524 152.68C160.292 150.876 157.74 149.38 150.48 146.256C142.208 142.692 138.644 140.448 135.344 136.972C133.452 134.948 131.692 131.648 130.944 128.964C130.328 126.676 130.196 121 130.68 118.712C132.396 110.704 138.424 105.116 147.136 103.488C149.952 102.916 156.508 103.092 159.28 103.796Z" fill="white"/>
</svg>
